<?xml version="1.0" ?><!DOCTYPE svg  PUBLIC '-//W3C//DTD SVG 1.1//EN'  'http://www.w3.org/Graphics/SVG/1.1/DTD/svg11.dtd'><svg height="100%" style="fill-rule:evenodd;clip-rule:evenodd;stroke-linejoin:round;stroke-miterlimit:1.41421;" version="1.1" viewBox="0 0 24 24" width="100%" xml:space="preserve" xmlns="http://www.w3.org/2000/svg" xmlns:serif="http://www.serif.com/" xmlns:xlink="http://www.w3.org/1999/xlink"><rect height="24" id="Artboard16" style="fill:none;" width="24" x="0" y="0"/><g><circle cx="12" cy="12" r="8.359" style="fill:#ea4c89;"/><path d="M12,2c5.519,0 10,4.481 10,10c0,5.519 -4.481,10 -10,10c-5.519,0 -10,-4.481 -10,-10c0,-5.519 4.481,-10 10,-10Zm3.115,17.759c-0.352,-2.311 -0.92,-4.438 -1.628,-6.371c-2.531,0.857 -4.952,2.616 -6.592,5.23c1.412,1.092 3.183,1.741 5.105,1.741c1.101,0 2.152,-0.213 3.115,-0.6Zm5.135,-6.403c-1.514,-0.594 -3.278,-0.724 -5.062,-0.407c0.647,1.831 1.15,3.835 1.451,6.005c1.885,-1.261 3.23,-3.269 3.611,-5.598Zm-14.482,4.213c1.686,-2.888 4.291,-4.766 7.152,-5.62c-0.208,-0.494 -0.425,-0.973 -0.65,-1.438c-2.483,0.759 -5.406,1.135 -8.626,1.254c-0.002,0.078 -0.003,0.157 -0.003,0.235c0,2.138 0.804,4.09 2.127,5.569Zm12.7,-10.863c-1.145,1.394 -2.687,2.443 -4.548,3.215c0.258,0.528 0.504,1.075 0.737,1.639c1.909,-0.289 3.87,-0.144 5.702,0.44c0,-2.008 -0.709,-3.852 -1.891,-5.294Zm-10.073,-2.249c-2.31,1.107 -4.035,3.245 -4.575,5.816c2.895,-0.1 5.518,-0.432 7.768,-1.094c-0.998,-1.836 -2.099,-3.415 -3.193,-4.722Zm9.094,1.24c-1.469,-1.28 -3.389,-2.056 -5.489,-2.056c-0.722,0 -1.423,0.091 -2.092,0.264c1.175,1.313 2.316,2.883 3.327,4.701c1.719,-0.701 3.157,-1.651 4.254,-2.909Z" style="fill:#c32361;"/></g></svg>